<svg xmlns="http://www.w3.org/2000/svg" width="146" height="30" viewBox="0 0 146 30">
  <g fill="none" fill-rule="evenodd">
    <path fill="#022A3B" d="M94.1630422,2.81487736 L94.1630422,9.4754434 L100.050895,9.4754434 L100.050895,14.5104906 L94.1630422,14.5104906 L94.1630422,21.408934 C94.1630422,23.4705849 95.1577222,24.3030849 96.8285859,24.3030849 C97.7038475,24.3030849 98.8971795,23.9859623 99.7326824,23.5102075 L101.20461,28.5056321 C99.6530228,29.3381321 98.0220599,29.9725189 95.7543883,29.9725189 C90.7816981,29.9725189 87.797942,27.2766226 87.797942,22.0433208 L87.797942,14.5104906 L84.1777611,14.5104906 L84.1777611,9.4754434 L87.797942,9.4754434 L87.797942,2.81487736 L94.1630422,2.81487736 Z M112.621819,8.88073585 C118.231217,8.88073585 121.771881,11.6956415 121.771881,16.7703113 L121.771881,29.3778113 L115.645333,29.3778113 L115.645333,27.9109245 C114.252781,29.1003113 112.343365,29.9725755 109.677963,29.9725755 C105.22228,29.9725755 102.238523,27.3955472 102.238523,23.4706415 C102.238523,19.585217 105.22228,17.0478113 110.553225,17.0478113 L115.645333,17.0478113 L115.645333,16.6514434 C115.645333,14.9861604 114.491618,13.8761604 112.820613,13.8761604 C110.911196,13.8761604 109.79724,14.6294151 109.479027,16.3739434 L103.471898,15.144934 C104.34716,11.2991321 107.847922,8.88073585 112.621819,8.88073585 Z M131.796466,9.47538679 L131.796466,20.3385 C131.796466,22.6776509 133.188876,24.2634057 135.217853,24.2634057 C137.724078,24.2634057 139.355182,22.558783 139.355182,18.7129811 L139.355182,9.47538679 L145.720425,9.47538679 L145.720425,29.3778396 L139.355182,29.3778396 L139.355182,27.4748208 C137.843354,29.060717 135.735002,29.9726038 133.228635,29.9726038 C128.574157,29.9726038 125.470983,26.6819434 125.470983,21.6863774 L125.470983,9.47538679 L131.796466,9.47538679 Z M55.8939459,9.43576415 L60.7077429,21.7261415 L65.481497,9.43576415 L72.2047104,9.43576415 L63.9300517,29.3778396 L57.4453912,29.3778396 L49.1707325,9.43576415 L55.8939459,9.43576415 Z M81.4730266,9.4754717 L81.4730266,29.3779245 L75.1079265,29.3779245 L75.1079265,9.4754717 L81.4730266,9.4754717 Z M115.645333,21.0917264 L111.269309,21.0917264 C109.677963,21.0917264 108.683425,21.9243679 108.683425,23.1533774 C108.683425,24.4220094 109.79724,25.2150283 111.468103,25.2150283 C113.656115,25.2150283 115.645333,23.748 115.645333,21.5278585 L115.645333,21.0917264 Z M78.2904766,1.42108547e-14 C80.4387298,1.42108547e-14 81.9903171,1.66514151 81.9903171,3.60778302 C81.9903171,5.62981132 80.4387298,7.13632075 78.2904766,7.13632075 C76.1422233,7.13632075 74.6305369,5.62981132 74.6305369,3.60778302 C74.6305369,1.66514151 76.1422233,1.42108547e-14 78.2904766,1.42108547e-14 Z"/>
    <path fill="#0AF" d="M27.6979835,21.3514811 C29.9102768,21.3514811 31.7097886,23.1428491 31.7097886,25.3448774 C31.7097886,27.5467642 29.9102768,29.3379906 27.6979835,29.3379906 C25.4858321,29.3379906 23.6861784,27.5467642 23.6861784,25.3448774 C23.6861784,23.1428491 25.4858321,21.3514811 27.6979835,21.3514811 Z M12.3704826,21.3514811 C14.5826339,21.3514811 16.3824297,23.1428491 16.3824297,25.3448774 C16.3824297,27.5467642 14.5826339,29.3379906 12.3704826,29.3379906 C10.1583313,29.3379906 8.3585355,27.5467642 8.3585355,25.3448774 C8.3585355,23.1428491 10.1583313,21.3514811 12.3704826,21.3514811 Z M27.6979835,22.9535094 C26.3734474,22.9535094 25.2958419,24.0262925 25.2958419,25.3448774 C25.2958419,26.6633208 26.3734474,27.7361038 27.6979835,27.7361038 C29.0228035,27.7361038 30.1004091,26.6633208 30.1004091,25.3448774 C30.1004091,24.0262925 29.0228035,22.9535094 27.6979835,22.9535094 Z M12.3704826,22.9535094 C11.0458045,22.9535094 9.96819899,24.0262925 9.96819899,25.3448774 C9.96819899,26.6633208 11.0458045,27.7361038 12.3704826,27.7361038 C13.6951607,27.7361038 14.7727662,26.6633208 14.7727662,25.3448774 C14.7727662,24.0262925 13.6951607,22.9535094 12.3704826,22.9535094 Z M31.7946452,9.47503302 C33.6649844,9.53207547 34.9278821,10.9062879 35.0099971,12.8965504 L35.0142562,13.1046085 L35.0142562,22.3160236 C35.0142562,22.7582406 34.7140772,23.116967 34.2696306,23.116967 C33.8620911,23.116967 33.576015,22.8155371 33.5311658,22.4246792 L33.5250051,22.3160236 L33.5250051,13.1046085 C33.5250051,12.5152217 33.3168393,11.1393255 31.8055789,11.0931934 C29.844476,11.0336179 27.8135112,11.0562594 25.8702997,11.0787594 L24.3073174,11.0947146 L22.7458259,11.101967 L21.0482671,11.1023915 L19.1424893,11.1026215 L17.2363919,11.101684 L13.6968646,11.1001274 C13.5388234,11.1001274 13.3772323,11.0977217 13.2147891,11.0958821 C12.0991288,11.0793255 11.0483604,11.0668726 10.366071,11.7212123 C9.87178389,12.1952689 9.53908792,12.850316 9.18708053,13.5442783 C8.85211262,14.2035708 8.50578506,14.8853632 7.98707469,15.4836651 C7.09974344,16.5067783 5.58507508,16.9598915 4.47012468,17.1599858 C2.97803365,17.4282877 2.3558084,17.9108349 1.91022583,19.1473443 C1.62680237,19.9334292 1.63518012,20.8157406 1.64412585,21.7492783 C1.64554581,21.9154104 1.64724976,22.0809764 1.64724976,22.2456934 C1.64710776,22.4772028 1.63830403,22.7290896 1.6292163,22.9917311 C1.59471134,23.9633349 1.55211262,25.1739481 2.01913655,25.6556462 C2.07709662,25.7152088 2.24278568,25.8877451 2.70620701,25.9186231 L2.85435538,25.9233821 L5.67126649,25.9233821 C6.11571309,25.9233821 6.47595623,26.3147972 6.47595623,26.7571557 C6.47595623,27.165356 6.1690035,27.53039 5.77221071,27.5841337 L5.67126649,27.5909292 L2.85421338,27.5909292 C2.01771659,27.5909292 1.3470708,27.3021085 0.860877456,26.8007406 C-0.0804121766,25.8299858 -0.0244658627,24.2268255 0.0205467808,22.9526745 C0.0292085197,22.7094198 0.0374442715,22.4677217 0.0378702587,22.2533349 C0.0378702587,22.0942783 0.0363083058,21.9295613 0.0347463528,21.7688066 C0.0249486481,20.7352217 0.0147249562,19.6644198 0.395273488,18.6084764 C1.03595818,16.8301274 2.13386909,15.9529104 4.18471329,15.5844198 C5.3987767,15.3667783 6.31635304,14.9588066 6.76832542,14.4374858 C7.15852966,13.9879104 7.445929,13.4213066 7.75008384,12.8215896 C8.14767185,12.0393255 8.55789749,11.2304575 9.24884867,10.5674858 C10.4076757,9.45592925 11.9743145,9.47743868 13.2358045,9.49385377 L13.4673285,9.49689623 L13.6958706,9.49824057 L17.235114,9.46597642 C18.0809352,9.46663679 18.9267563,9.45176258 19.772872,9.44177306 L21.0423032,9.43300472 L22.7344663,9.43300472 C23.7650712,9.43300472 24.7970961,9.45479717 25.829689,9.44291038 C27.7883779,9.42041038 29.7997473,9.41446698 31.7946452,9.47503302 Z M21.7660554,25.9233538 C22.210502,25.9233538 22.5708872,26.3149104 22.5708872,26.7571274 C22.5708872,27.1993443 22.210502,27.5909009 21.7660554,27.5909009 L21.7660554,27.5909009 L18.5472964,27.5909009 C18.1027078,27.5909009 17.7426067,27.1993443 17.7426067,26.7571274 C17.7426067,26.3149104 18.1027078,25.9233538 18.5472964,25.9233538 L18.5472964,25.9233538 Z M17.8995688,12.4717217 C18.7821939,12.4717217 19.599806,12.8436258 20.1726616,13.4991731 L20.3004324,13.6554481 L23.2603332,17.4477594 C24.262539,18.7588443 23.9886293,20.7065802 22.6673591,21.7074764 C22.1287693,22.1153066 21.4913505,22.3308255 20.8245386,22.3308255 C19.9579996,22.3308255 19.1545146,21.9646561 18.5906439,21.3188788 L18.4648537,21.1649292 L15.502255,17.2894104 C14.4957893,15.9720991 14.7530856,14.0863443 16.0757757,13.084316 C16.6052778,12.6832783 17.2360228,12.4717217 17.8995688,12.4717217 Z M38.6656193,19.4383868 L41.4822465,19.4383868 C41.9266931,19.4383868 42.2869362,19.8299434 42.2869362,20.2721604 C42.2869362,20.6803607 41.9799835,21.0453947 41.5831907,21.0991384 L41.4822465,21.105934 L38.6656193,21.105934 C38.2213147,21.105934 37.8607876,20.7143774 37.8607876,20.2721604 C37.8607876,19.8639601 38.1679823,19.498926 38.5647006,19.4451823 L38.6656193,19.4383868 L41.4822465,19.4383868 Z M21.0179368,17.1861085 L18.755519,18.8993632 L19.7440932,20.1926179 C20.1963495,20.7851179 21.0870887,20.8916745 21.6928424,20.4323349 C22.2807047,19.9873762 22.434759,19.151014 22.0651486,18.5425118 L21.9842177,18.424033 L21.0179368,17.1861085 Z M42.2869362,16.2884858 C42.7313828,16.2884858 43.0919099,16.6800425 43.0919099,17.1222594 C43.0919099,17.5305903 42.7847152,17.8955139 42.3878852,17.9492398 L42.2869362,17.956033 L38.6656193,17.956033 C38.2213147,17.956033 37.8607876,17.5646179 37.8607876,17.1222594 C37.8607876,16.7140591 38.1679823,16.3490251 38.5647006,16.2952814 L38.6656193,16.2884858 L42.2869362,16.2884858 Z M17.8995688,14.07375 C17.5907281,14.07375 17.2972229,14.1722406 17.0501504,14.3591745 C16.4724053,14.7969693 16.3308394,15.5971886 16.7019714,16.2010843 L16.7830564,16.3190802 L17.7810023,17.6245047 L20.0306405,15.9210142 L19.0247429,14.6321462 C18.7515431,14.2746934 18.3431634,14.07375 17.8995688,14.07375 Z M43.8965855,12.7680991 C44.3410321,12.7680991 44.7012752,13.066967 44.7012752,13.509184 C44.7012752,13.9146792 44.3985709,14.1996026 44.0057832,14.2442739 L43.8965855,14.2504104 L38.6656051,14.2504104 C38.2213005,14.2504104 37.8607734,13.9515425 37.8607734,13.509184 C37.8607734,13.1038184 38.1637163,12.8189059 38.5564345,12.7742355 L38.6656051,12.7680991 L43.8965855,12.7680991 Z"/>
  </g>
</svg>
